<?xml version="1.0" encoding="UTF-8" standalone="no"?>
<!-- Created with Inkscape (http://www.inkscape.org/) -->

<svg
   width="50"
   height="50"
   viewBox="0 0 50 50"
   version="1.1"
   id="svg1"
   xmlns="http://www.w3.org/2000/svg"
   xmlns:svg="http://www.w3.org/2000/svg">
  <defs
     id="defs1" />
  <path
     id="path1"
     style="fill:#1a1a1a;stroke-width:1.46827"
     d="M 17.5,0 A 17.5,17.5 0 0 0 0,17.5 17.5,17.5 0 0 0 17.5,35 17.5,17.5 0 0 0 35,17.5 17.5,17.5 0 0 0 17.5,0 Z m -0.324219,1.5 h 0.648438 V 16.039062 A 1.5,1.5 0 0 1 19,17.5 1.5,1.5 0 0 1 17.5,19 1.5,1.5 0 0 1 16.855469,18.839844 L 10.195312,25.5 9.5,24.804688 16.160156,18.144531 A 1.5,1.5 0 0 1 16,17.5 1.5,1.5 0 0 1 17.175781,16.064453 Z" />
</svg>
